<mxfile host="app.diagrams.net" modified="2023-07-01T02:57:16.307Z" agent="Mozilla/5.0 (Windows NT 10.0; Win64; x64; rv:109.0) Gecko/20100101 Firefox/112.0" etag="x6mDPprF1sFB6PD_SJkc" version="21.5.2" type="github">
  <diagram name="Página-1" id="PqHn9Dh7yP-jF3FoaL0B">
    <mxGraphModel dx="1895" dy="532" grid="1" gridSize="10" guides="1" tooltips="1" connect="1" arrows="1" fold="1" page="1" pageScale="1" pageWidth="850" pageHeight="1100" math="0" shadow="0">
      <root>
        <mxCell id="0" />
        <mxCell id="1" parent="0" />
        <mxCell id="qB7VqJZ4Xb1lMKzwYPK3-8" value="" style="edgeStyle=orthogonalEdgeStyle;rounded=0;orthogonalLoop=1;jettySize=auto;html=1;" edge="1" parent="1" source="qB7VqJZ4Xb1lMKzwYPK3-1" target="qB7VqJZ4Xb1lMKzwYPK3-7">
          <mxGeometry relative="1" as="geometry" />
        </mxCell>
        <mxCell id="qB7VqJZ4Xb1lMKzwYPK3-1" value="inicio" style="ellipse;whiteSpace=wrap;html=1;" vertex="1" parent="1">
          <mxGeometry x="380" y="80" width="60" height="50" as="geometry" />
        </mxCell>
        <mxCell id="qB7VqJZ4Xb1lMKzwYPK3-2" value="DIAGRAMA DE ACTIVIDAD-ESTUDIANTE " style="text;html=1;strokeColor=none;fillColor=none;align=center;verticalAlign=middle;whiteSpace=wrap;rounded=0;fontSize=23;rotation=-90;" vertex="1" parent="1">
          <mxGeometry x="-810" y="340" width="580" height="40" as="geometry" />
        </mxCell>
        <mxCell id="qB7VqJZ4Xb1lMKzwYPK3-10" value="" style="edgeStyle=orthogonalEdgeStyle;rounded=0;orthogonalLoop=1;jettySize=auto;html=1;" edge="1" parent="1" source="qB7VqJZ4Xb1lMKzwYPK3-7" target="qB7VqJZ4Xb1lMKzwYPK3-16">
          <mxGeometry relative="1" as="geometry">
            <mxPoint x="410" y="220" as="targetPoint" />
          </mxGeometry>
        </mxCell>
        <mxCell id="qB7VqJZ4Xb1lMKzwYPK3-7" value="Login" style="rounded=1;whiteSpace=wrap;html=1;" vertex="1" parent="1">
          <mxGeometry x="370" y="160" width="80" height="35" as="geometry" />
        </mxCell>
        <mxCell id="qB7VqJZ4Xb1lMKzwYPK3-20" value="" style="edgeStyle=orthogonalEdgeStyle;rounded=0;orthogonalLoop=1;jettySize=auto;html=1;" edge="1" parent="1" source="qB7VqJZ4Xb1lMKzwYPK3-14" target="qB7VqJZ4Xb1lMKzwYPK3-15">
          <mxGeometry relative="1" as="geometry" />
        </mxCell>
        <mxCell id="qB7VqJZ4Xb1lMKzwYPK3-14" value="Seleccione la opción" style="shape=parallelogram;perimeter=parallelogramPerimeter;whiteSpace=wrap;html=1;fixedSize=1;" vertex="1" parent="1">
          <mxGeometry x="335" y="270" width="150" height="30" as="geometry" />
        </mxCell>
        <mxCell id="qB7VqJZ4Xb1lMKzwYPK3-15" value="" style="shape=or;whiteSpace=wrap;html=1;rotation=90;" vertex="1" parent="1">
          <mxGeometry x="380" y="310" width="60" height="90" as="geometry" />
        </mxCell>
        <mxCell id="qB7VqJZ4Xb1lMKzwYPK3-18" style="edgeStyle=orthogonalEdgeStyle;rounded=0;orthogonalLoop=1;jettySize=auto;html=1;" edge="1" parent="1" source="qB7VqJZ4Xb1lMKzwYPK3-16" target="qB7VqJZ4Xb1lMKzwYPK3-14">
          <mxGeometry relative="1" as="geometry" />
        </mxCell>
        <mxCell id="qB7VqJZ4Xb1lMKzwYPK3-16" value="Desplegar opciones disponibles" style="rounded=1;whiteSpace=wrap;html=1;" vertex="1" parent="1">
          <mxGeometry x="340" y="220" width="140" height="30" as="geometry" />
        </mxCell>
        <mxCell id="qB7VqJZ4Xb1lMKzwYPK3-19" value="Según la opcion" style="text;html=1;strokeColor=none;fillColor=none;align=center;verticalAlign=middle;whiteSpace=wrap;rounded=0;" vertex="1" parent="1">
          <mxGeometry x="380" y="340" width="60" height="30" as="geometry" />
        </mxCell>
        <mxCell id="qB7VqJZ4Xb1lMKzwYPK3-21" value="" style="endArrow=none;dashed=1;html=1;dashPattern=1 3;strokeWidth=2;rounded=0;exitX=0.583;exitY=0.056;exitDx=0;exitDy=0;exitPerimeter=0;" edge="1" parent="1" source="qB7VqJZ4Xb1lMKzwYPK3-15">
          <mxGeometry width="50" height="50" relative="1" as="geometry">
            <mxPoint x="460" y="320" as="sourcePoint" />
            <mxPoint x="720" y="360" as="targetPoint" />
          </mxGeometry>
        </mxCell>
        <mxCell id="qB7VqJZ4Xb1lMKzwYPK3-22" value="" style="endArrow=none;dashed=1;html=1;dashPattern=1 3;strokeWidth=2;rounded=0;" edge="1" parent="1">
          <mxGeometry width="50" height="50" relative="1" as="geometry">
            <mxPoint x="100" y="360.36" as="sourcePoint" />
            <mxPoint x="370" y="360" as="targetPoint" />
          </mxGeometry>
        </mxCell>
        <mxCell id="qB7VqJZ4Xb1lMKzwYPK3-30" value="" style="edgeStyle=orthogonalEdgeStyle;rounded=0;orthogonalLoop=1;jettySize=auto;html=1;" edge="1" parent="1" source="qB7VqJZ4Xb1lMKzwYPK3-23" target="qB7VqJZ4Xb1lMKzwYPK3-29">
          <mxGeometry relative="1" as="geometry" />
        </mxCell>
        <mxCell id="qB7VqJZ4Xb1lMKzwYPK3-23" value="Ingresar correo de recuperación" style="shape=parallelogram;perimeter=parallelogramPerimeter;whiteSpace=wrap;html=1;fixedSize=1;" vertex="1" parent="1">
          <mxGeometry x="-140" y="280" width="210" height="30" as="geometry" />
        </mxCell>
        <mxCell id="qB7VqJZ4Xb1lMKzwYPK3-24" value="Ingresar datos de registro" style="shape=parallelogram;perimeter=parallelogramPerimeter;whiteSpace=wrap;html=1;fixedSize=1;" vertex="1" parent="1">
          <mxGeometry x="70" y="195" width="170" height="30" as="geometry" />
        </mxCell>
        <mxCell id="qB7VqJZ4Xb1lMKzwYPK3-25" value="Ingresar datos de inicio de sesión" style="shape=parallelogram;perimeter=parallelogramPerimeter;whiteSpace=wrap;html=1;fixedSize=1;" vertex="1" parent="1">
          <mxGeometry x="550" y="80" width="220" height="40" as="geometry" />
        </mxCell>
        <mxCell id="qB7VqJZ4Xb1lMKzwYPK3-29" value="Validar en la base de datos" style="rounded=1;whiteSpace=wrap;html=1;" vertex="1" parent="1">
          <mxGeometry x="-87.5" y="342.5" width="105" height="35" as="geometry" />
        </mxCell>
      </root>
    </mxGraphModel>
  </diagram>
</mxfile>
